<svg width="24" height="24" viewBox="0 0 24 24" fill="none" xmlns="http://www.w3.org/2000/svg">
<path d="M11.7031 5.616C11.7331 4.711 11.9811 3.379 12.8481 2.504C13.6531 1.691 14.6331 1.295 15.2431 1.114C15.2968 1.09718 15.3538 1.09368 15.4092 1.1038C15.4645 1.11393 15.5166 1.13738 15.5609 1.17212C15.6052 1.20687 15.6404 1.25187 15.6634 1.30324C15.6864 1.35461 15.6966 1.41082 15.6931 1.467C15.6531 2.333 15.4251 3.625 14.8371 4.317C14.2831 4.969 13.3931 5.833 12.0881 5.979C12.0381 5.98441 11.9875 5.97891 11.9398 5.96289C11.8921 5.94688 11.8485 5.92072 11.8119 5.88622C11.7753 5.85172 11.7466 5.8097 11.7278 5.76305C11.7091 5.7164 11.7006 5.66623 11.7031 5.616Z" fill="black"/>
<path d="M13.937 22.1701C14.564 22.4101 15.197 22.6521 15.77 22.6521C16.997 22.6521 20.5679 19.8221 20.6959 16.8841C20.6969 16.8101 20.6774 16.7372 20.6394 16.6737C20.6014 16.6101 20.5466 16.5583 20.481 16.5241C19.573 16.0161 18.089 14.7501 18.038 12.9091C17.978 10.7631 19.055 9.0591 19.87 8.3541C20.054 8.1951 20.1169 7.9151 19.9529 7.7371C19.2109 6.9271 17.719 5.8121 16.357 5.8391C15.367 5.8591 14.474 6.2291 13.707 6.5451C13.12 6.7881 12.607 7.0001 12.181 7.0001C11.778 7.0001 11.294 6.7901 10.738 6.5471C9.98995 6.2211 9.11195 5.8391 8.12795 5.8391C6.30395 5.8391 2.69995 7.3521 2.69995 13.1911C2.69995 16.2861 5.89495 22.7341 8.59195 22.6521C9.17395 22.6521 9.79595 22.4121 10.414 22.1721C11.022 21.9361 11.625 21.7021 12.181 21.7021C12.718 21.7021 13.324 21.9351 13.937 22.1701Z" fill="black"/>
</svg>
