<svg width="20" height="20" viewBox="0 0 20 20" fill="none" xmlns="http://www.w3.org/2000/svg">
<path d="M6.66675 8.33333V6.66667C6.66675 4.36583 7.69925 2.5 10.0001 2.5C12.3009 2.5 13.3334 4.36583 13.3334 6.66667V8.33333M10.0001 13.125V12.7083M13.3334 13.125V12.7083M6.66675 13.125V12.7083M2.91675 14.8333V11C2.91675 10.0667 2.91675 9.6 3.09841 9.24417C3.25806 8.93027 3.51303 8.675 3.82675 8.515C4.18341 8.33417 4.65008 8.33417 5.58341 8.33417H14.4167C15.3501 8.33417 15.8167 8.33417 16.1734 8.515C16.487 8.67479 16.742 8.92974 16.9017 9.24333C17.0834 9.6 17.0834 10.0667 17.0834 11V14.8333C17.0834 15.7667 17.0834 16.2333 16.9017 16.59C16.742 16.9036 16.487 17.1585 16.1734 17.3183C15.8167 17.5 15.3501 17.5 14.4167 17.5H5.58341C4.65008 17.5 4.18341 17.5 3.82675 17.3183C3.51316 17.1585 3.2582 16.9036 3.09841 16.59C2.91675 16.2342 2.91675 15.7675 2.91675 14.8333Z" stroke="#212121" stroke-width="1.5" stroke-linecap="round" stroke-linejoin="round"/>
</svg>
