<svg width="20" height="20" viewBox="0 0 20 20" fill="none" xmlns="http://www.w3.org/2000/svg">
<path d="M3.0625 12.4133C2.35417 11.4933 2 11.0325 2 9.66667C2 8.3 2.35417 7.84083 3.0625 6.92C4.47667 5.08333 6.84833 3 10.3333 3C13.8183 3 16.19 5.08333 17.6042 6.92C18.3125 7.84167 18.6667 8.30083 18.6667 9.66667C18.6667 11.0333 18.3125 11.4925 17.6042 12.4133C16.19 14.25 13.8183 16.3333 10.3333 16.3333C6.84833 16.3333 4.47667 14.25 3.0625 12.4133Z" stroke="#212121" stroke-width="1.5"/>
<path d="M12.8333 9.6665C12.8333 10.3295 12.5699 10.9654 12.101 11.4343C11.6322 11.9031 10.9963 12.1665 10.3333 12.1665C9.67021 12.1665 9.03433 11.9031 8.56548 11.4343C8.09664 10.9654 7.83325 10.3295 7.83325 9.6665C7.83325 9.00346 8.09664 8.36758 8.56548 7.89874C9.03433 7.4299 9.67021 7.1665 10.3333 7.1665C10.9963 7.1665 11.6322 7.4299 12.101 7.89874C12.5699 8.36758 12.8333 9.00346 12.8333 9.6665Z" stroke="#212121" stroke-width="1.5"/>
</svg>
