<svg width="20" height="20" viewBox="0 0 20 20" fill="none" xmlns="http://www.w3.org/2000/svg">
<path d="M3.705 7.3525C2.92584 8.27296 2.34536 9.34455 2 10.5C3.07667 14.1158 6.425 16.75 10.3883 16.75C11.2158 16.75 12.0158 16.635 12.7742 16.4208M5.57833 5.69C7.00552 4.74817 8.6784 4.24735 10.3883 4.25C14.3517 4.25 17.6992 6.885 18.7758 10.4992C18.1858 12.4734 16.9191 14.1766 15.1983 15.31M5.57833 5.69L2.88833 3M5.57833 5.69L8.62 8.73167M15.1983 15.31L17.8883 18M15.1983 15.31L12.1567 12.2683C12.3888 12.0362 12.573 11.7605 12.6986 11.4572C12.8243 11.1539 12.889 10.8287 12.889 10.5004C12.889 10.1721 12.8243 9.84697 12.6986 9.54363C12.573 9.24029 12.3888 8.96467 12.1567 8.7325C11.9245 8.50033 11.6489 8.31617 11.3455 8.19052C11.0422 8.06487 10.7171 8.0002 10.3887 8.0002C10.0604 8.0002 9.7353 8.06487 9.43196 8.19052C9.12862 8.31617 8.853 8.50033 8.62083 8.7325M12.1558 12.2675L8.62167 8.73333" stroke="#212121" stroke-width="1.5" stroke-linecap="round" stroke-linejoin="round"/>
</svg>
