<svg width="24" height="24" viewBox="0 0 24 24" fill="none" xmlns="http://www.w3.org/2000/svg">
<path d="M11.9998 21V12M11.9998 7H7.94983C5.17983 7 5.00983 3 7.94983 3C11.0998 3 11.9998 7 11.9998 7ZM11.9998 7H16.0498C18.9458 7 18.9458 3 16.0498 3C12.8998 3 11.9998 7 11.9998 7Z" stroke="#3A90CF" stroke-width="1.5" stroke-linecap="round" stroke-linejoin="round"/>
<path d="M20 12V19C20 19.5304 19.7893 20.0391 19.4142 20.4142C19.0391 20.7893 18.5304 21 18 21H6C5.46957 21 4.96086 20.7893 4.58579 20.4142C4.21071 20.0391 4 19.5304 4 19V12M21 12V9C21 8.46957 20.7893 7.96086 20.4142 7.58579C20.0391 7.21071 19.5304 7 19 7H5C4.46957 7 3.96086 7.21071 3.58579 7.58579C3.21071 7.96086 3 8.46957 3 9V12H21Z" stroke="#3A90CF" stroke-width="1.5" stroke-linecap="round" stroke-linejoin="round"/>
</svg>
