<svg width="40" height="40" viewBox="0 0 40 40" fill="none" xmlns="http://www.w3.org/2000/svg">
<path d="M5.99951 19.0847C5.99951 16.4618 5.99951 15.1503 6.52794 13.9973C7.0583 12.8442 8.05151 11.9924 10.0399 10.285L11.9684 8.62972C15.5652 5.54517 17.3588 4 19.4995 4C21.6402 4 23.4357 5.54324 27.0306 8.62779L28.9592 10.2831C30.9456 11.9905 31.9407 12.8422 32.4692 13.9953C32.9995 15.1484 32.9995 16.4599 32.9995 19.0828V27.2741C32.9995 30.9169 32.9995 32.7363 31.8694 33.8682C30.7392 35 28.9225 35 25.2852 35H13.7138C10.0765 35 8.2598 35 7.12965 33.8682C5.99951 32.7363 5.99951 30.9169 5.99951 27.2741V19.0847Z" stroke="white" stroke-width="2.5"/>
<path d="M24.5233 33.4286V23.9048C24.5233 23.3996 24.3226 22.9151 23.9654 22.5579C23.6082 22.2007 23.1237 22 22.6186 22H16.9043C16.3991 22 15.9146 22.2007 15.5574 22.5579C15.2002 22.9151 14.9995 23.3996 14.9995 23.9048V33.4286" stroke="white" stroke-width="2.5" stroke-linecap="round" stroke-linejoin="round"/>
</svg>
