<svg width="24" height="24" viewBox="0 0 24 24" fill="none" xmlns="http://www.w3.org/2000/svg">
<path d="M8.24276 3.02998C8.50002 3.09443 8.72114 3.25844 8.85747 3.48592C8.99381 3.7134 9.0342 3.98572 8.96976 4.24298L4.96976 20.243C4.93977 20.3723 4.88433 20.4944 4.80667 20.6021C4.72901 20.7097 4.63069 20.8009 4.51743 20.8702C4.40418 20.9394 4.27826 20.9855 4.14703 21.0056C4.01579 21.0257 3.88187 21.0194 3.75307 20.9872C3.62427 20.955 3.50317 20.8975 3.39684 20.818C3.2905 20.7385 3.20106 20.6387 3.13373 20.5242C3.06641 20.4098 3.02254 20.2831 3.00469 20.1516C2.98684 20.02 2.99536 19.8862 3.02976 19.758L7.02976 3.75798C7.06157 3.63051 7.11818 3.51055 7.19636 3.40497C7.27455 3.29939 7.37277 3.21024 7.48542 3.14264C7.59806 3.07503 7.72293 3.03028 7.85288 3.01095C7.98283 2.99162 8.11531 2.99808 8.24276 3.02998ZM16.9698 3.75698L20.9698 19.757C21.0042 19.8852 21.0127 20.019 20.9948 20.1506C20.977 20.2821 20.9331 20.4088 20.8658 20.5232C20.7985 20.6377 20.709 20.7375 20.6027 20.817C20.4964 20.8965 20.3753 20.954 20.2465 20.9862C20.1177 21.0184 19.9837 21.0247 19.8525 21.0046C19.7213 20.9845 19.5953 20.9384 19.4821 20.8692C19.3688 20.7999 19.2705 20.7087 19.1929 20.6011C19.1152 20.4934 19.0597 20.3713 19.0298 20.242L15.0298 4.24198C14.9954 4.11375 14.9868 3.97995 15.0047 3.84839C15.0225 3.71683 15.0664 3.59015 15.1337 3.47572C15.2011 3.3613 15.2905 3.26142 15.3968 3.18193C15.5032 3.10243 15.6243 3.04491 15.7531 3.01271C15.8819 2.98051 16.0158 2.97428 16.147 2.99438C16.2783 3.01448 16.4042 3.06052 16.5174 3.1298C16.6307 3.19908 16.729 3.29022 16.8067 3.3979C16.8843 3.50558 16.9398 3.62764 16.9698 3.75698ZM11.9998 17C12.2447 17 12.4811 17.0899 12.6641 17.2527C12.8472 17.4155 12.9641 17.6397 12.9928 17.883L12.9998 18V20C12.9995 20.2549 12.9019 20.5 12.7269 20.6853C12.5519 20.8707 12.3128 20.9822 12.0584 20.9971C11.8039 21.0121 11.5534 20.9293 11.3579 20.7657C11.1625 20.6021 11.0369 20.3701 11.0068 20.117L10.9998 20V18C10.9998 17.7348 11.1051 17.4804 11.2927 17.2929C11.4802 17.1053 11.7345 17 11.9998 17ZM11.9998 9.99998C12.265 9.99998 12.5193 10.1053 12.7069 10.2929C12.8944 10.4804 12.9998 10.7348 12.9998 11V13C12.9998 13.2652 12.8944 13.5195 12.7069 13.7071C12.5193 13.8946 12.265 14 11.9998 14C11.7345 14 11.4802 13.8946 11.2927 13.7071C11.1051 13.5195 10.9998 13.2652 10.9998 13V11C10.9998 10.7348 11.1051 10.4804 11.2927 10.2929C11.4802 10.1053 11.7345 9.99998 11.9998 9.99998ZM11.9998 2.99998C12.2447 3.00001 12.4811 3.08993 12.6641 3.25269C12.8472 3.41545 12.9641 3.63973 12.9928 3.88298L12.9998 3.99998V5.99998C12.9995 6.25486 12.9019 6.50001 12.7269 6.68535C12.5519 6.87068 12.3128 6.98221 12.0584 6.99715C11.8039 7.01209 11.5534 6.9293 11.3579 6.76571C11.1625 6.60212 11.0369 6.37007 11.0068 6.11698L10.9998 5.99998V3.99998C10.9998 3.73476 11.1051 3.48041 11.2927 3.29287C11.4802 3.10533 11.7345 2.99998 11.9998 2.99998Z" fill="#3A90CF"/>
</svg>
