<svg width="24" height="24" viewBox="0 0 24 24" fill="none" xmlns="http://www.w3.org/2000/svg">
<g clip-path="url(#clip0_7567_14925)">
<path d="M18.3333 9.83333H20.6667C21.2855 9.83333 21.879 10.0792 22.3166 10.5168C22.7542 10.9543 23 11.5478 23 12.1667V14.5C23 14.8094 22.8771 15.1062 22.6583 15.325C22.4395 15.5437 22.1428 15.6667 21.8333 15.6667H20.0833M18.3333 9.83333H10.75M18.3333 9.83333L15.5135 5.13283C15.3062 4.78732 15.0129 4.50138 14.6623 4.30286C14.3117 4.10434 13.9156 4 13.5127 4H10.75M20.0833 15.6667C20.0833 16.2855 19.8375 16.879 19.3999 17.3166C18.9623 17.7542 18.3688 18 17.75 18C17.1312 18 16.5377 17.7542 16.1001 17.3166C15.6625 16.879 15.4167 16.2855 15.4167 15.6667M20.0833 15.6667C20.0833 15.0478 19.8375 14.4543 19.3999 14.0168C18.9623 13.5792 18.3688 13.3333 17.75 13.3333C17.1312 13.3333 16.5377 13.5792 16.1001 14.0168C15.6625 14.4543 15.4167 15.0478 15.4167 15.6667M10.75 9.83333V4M10.75 9.83333H4.33333M10.75 4H7.41333C6.87372 3.99979 6.35071 4.18661 5.93335 4.52866C5.516 4.87072 5.2301 5.34685 5.12433 5.876L4.33333 9.83333M4.33333 9.83333C3.71449 9.83333 3.121 10.0792 2.68342 10.5168C2.24583 10.9543 2 11.5478 2 12.1667V14.5C2 14.8094 2.12292 15.1062 2.34171 15.325C2.5605 15.5437 2.85725 15.6667 3.16667 15.6667H4.91667M4.91667 15.6667C4.91667 16.2855 5.1625 16.879 5.60008 17.3166C6.03767 17.7542 6.63116 18 7.25 18C7.86884 18 8.46233 17.7542 8.89992 17.3166C9.3375 16.879 9.58333 16.2855 9.58333 15.6667M4.91667 15.6667C4.91667 15.0478 5.1625 14.4543 5.60008 14.0168C6.03767 13.5792 6.63116 13.3333 7.25 13.3333C7.86884 13.3333 8.46233 13.5792 8.89992 14.0168C9.3375 14.4543 9.58333 15.0478 9.58333 15.6667M9.58333 15.6667H15.4167" stroke="#3A90CF" stroke-width="1.5" stroke-linecap="round" stroke-linejoin="round"/>
</g>
<defs>
<clipPath id="clip0_7567_14925">
<rect width="24" height="24" fill="white"/>
</clipPath>
</defs>
</svg>
